<svg xmlns="http://www.w3.org/2000/svg" xmlns:xlink="http://www.w3.org/1999/xlink" viewBox="0.01 0 731.37 162.74"><defs><style>.cls-1{isolation:isolate;}.cls-2{fill:url(#linear-gradient);}.cls-3{fill:url(#linear-gradient-2);}.cls-4{fill:url(#linear-gradient-3);}.cls-5{fill:url(#linear-gradient-4);}.cls-6{fill:url(#linear-gradient-5);}.cls-10,.cls-7,.cls-8{mix-blend-mode:screen;}.cls-7{fill:url(#linear-gradient-6);}.cls-9{fill:url(#linear-gradient-7);}.cls-10{fill:url(#linear-gradient-8);}.cls-11{fill:url(#linear-gradient-9);}.cls-12{fill:#e42e3c;}</style><linearGradient id="linear-gradient" x1="27.67" y1="5.73" x2="27.67" y2="124.05" gradientUnits="userSpaceOnUse"><stop offset="0.01" stop-color="#dd2a2d"/><stop offset="1" stop-color="#ff3b57"/></linearGradient><linearGradient id="linear-gradient-2" x1="57.61" y1="139.11" x2="57.61" y2="20.15" gradientUnits="userSpaceOnUse"><stop offset="0.01" stop-color="#dd2a2d"/><stop offset="1" stop-color="#ff3b75"/></linearGradient><linearGradient id="linear-gradient-3" x1="112.97" y1="102.82" x2="112.97" y2="21.77" xlink:href="#linear-gradient-2"/><linearGradient id="linear-gradient-4" x1="160.72" y1="77.5" x2="62.51" y2="77.5" gradientUnits="userSpaceOnUse"><stop offset="0" stop-color="#ff6c1a"/><stop offset="1" stop-color="#f81476"/></linearGradient><linearGradient id="linear-gradient-5" x1="13.18" y1="81.39" x2="81.57" y2="81.39" xlink:href="#linear-gradient-4"/><linearGradient id="linear-gradient-6" x1="49.11" y1="-1.74" x2="49.11" y2="191.2" gradientUnits="userSpaceOnUse"><stop offset="0" stop-color="#ff6c1a"/><stop offset="1" stop-color="#f814ff" stop-opacity="0"/></linearGradient><linearGradient id="linear-gradient-7" x1="41.26" y1="10.78" x2="41.26" y2="152.41" xlink:href="#linear-gradient-6"/><linearGradient id="linear-gradient-8" x1="110.8" y1="48.25" x2="110.8" y2="139.9" xlink:href="#linear-gradient-6"/><linearGradient id="linear-gradient-9" x1="83.43" y1="69.59" x2="115.11" y2="69.59" xlink:href="#linear-gradient-6"/></defs><g class="cls-1"><g id="Layer_2" data-name="Layer 2"><g id="Layer_1-2" data-name="Layer 1"><path class="cls-2" d="M16.64,21.41C34.2,28.69,38.42,54.65,20,81.4,6.33,101.12-3,114.79.9,134.67s21.65,28.07,34.31,28.07c13.87-12.38,26.67-90.38,16.42-126S27,9.22,16.64,21.41Z"/><path class="cls-3" d="M81.57,133.12c-14.84,2.94-21.83-4.34-22.15-16.56-.67-25.84,13.87-44,16.1-64C79.1,20.36,60.26-1.35,33.65.07c2.71,5.5,36.4,39.79,26.48,58.11C48.68,79.32,34.41,117.73,43,129.88S57.31,146.09,81.57,133.12Z"/><path class="cls-4" d="M136.29,93.34c7.49-5.48,7.72-16.19,1.08-23.75,1.78,9-19,16-24.94-3.7C107.26,48.79,96.2,35.68,83.8,30.32c1.53,1.48,16,12.51,19.49,39.27C106,90.39,116.57,107.76,136.29,93.34Z"/><path class="cls-5" d="M137.8,92.11c-9.24,7.47-25.47,2.4-30.1-13.67-6.51-22.62-5.91-37.31-23.9-48.12a21.3,21.3,0,0,1,1,2.64,31.44,31.44,0,0,1,.62,12.85C82.82,64.87,74.12,81.06,72.5,101.25c-1.52,19,12.88,27.5,23.38,21.57C95.88,122.82,137.32,92.54,137.8,92.11Z"/><path class="cls-6" d="M45.21,159.31l36.36-26.19c-5.89,3.25-31.84,7.16-32.46-19.51-.33-14,14.58-42.85,16.61-49,9.7-29.16-1.28-52.9-20.51-62.12C32-3.82,16.64,2.47,16.64,17.17v4.24c2.63-1.24,13.41-5,20.75,5.91,20.68,30.82-32.54,77-23.07,112.82,3.81,14.39,9.88,20.42,17.2,22.14A16.51,16.51,0,0,0,45.21,159.31Z"/><path class="cls-7" d="M55.27,39.75c.36,36.24-30.33,65.7-24.79,96s35.45,8.62,35.45,8.62h0l15.64-11.27c-5.89,3.25-31.84,7.16-32.46-19.51-.33-14,14.58-42.85,16.61-49,9.7-29.16-1.28-52.9-20.51-62.12C32-3.82,16.64,2.47,16.64,17.17v4.24C26,.75,55,14.11,55.27,39.75Z"/><g class="cls-8"><path class="cls-9" d="M16.64,17.17l0,4.24-.08,0A20.66,20.66,0,0,1,20.1,16a14.89,14.89,0,0,1,5.26-3.74,17.16,17.16,0,0,1,12.74.16A26.16,26.16,0,0,1,48.54,20a30.35,30.35,0,0,1,6,11.49,31.09,31.09,0,0,1,1.08,6.43l.08,1.63c0,.55,0,1.09,0,1.63,0,1.08,0,2.16-.11,3.24a77,77,0,0,1-1.91,12.82,146,146,0,0,1-8.53,24.42C41.71,89.58,38,97.35,35,105.4s-5.15,16.46-4.78,25a37,37,0,0,0,2.66,12.43,17.27,17.27,0,0,0,3.55,5.2,12.42,12.42,0,0,0,5.43,3.1c4.11,1.13,8.53.36,12.56-1a49.27,49.27,0,0,0,11.48-5.78,48.89,48.89,0,0,1-11.4,6c-4,1.43-8.49,2.31-12.77,1.22a12.86,12.86,0,0,1-5.69-3.15,18.13,18.13,0,0,1-3.73-5.36,37.47,37.47,0,0,1-2.84-12.64,49.24,49.24,0,0,1,1.06-12.93,89.44,89.44,0,0,1,3.62-12.44c3-8.11,6.65-15.91,10-23.81a146.8,146.8,0,0,0,8.54-24.23,75.37,75.37,0,0,0,1.94-12.66c.09-1.07.11-2.14.12-3.2,0-.54,0-1.07,0-1.6L54.76,38a31.64,31.64,0,0,0-1-6.27A29.61,29.61,0,0,0,48,20.44a25.57,25.57,0,0,0-10.11-7.55,16.9,16.9,0,0,0-12.43-.35,14.68,14.68,0,0,0-5.24,3.57,20.43,20.43,0,0,0-3.57,5.32l-.07.16v-.18Z"/></g><path class="cls-10" d="M115,108.86c10.94-8,22.57-16.53,22.82-16.75-9.24,7.47-25.47,2.4-30.1-13.67-6.51-22.62-5.91-37.31-23.9-48.12C94.68,42.29,97,49.62,97,72S96.73,103.92,115,108.86Z"/><g class="cls-8"><path class="cls-11" d="M83.8,30.32A59.34,59.34,0,0,1,91,39.16a35.89,35.89,0,0,1,4.54,10.47c1.84,7.46,1.85,15.14,2,22.71,0,3.79,0,7.58.07,11.36a50.25,50.25,0,0,0,1.32,11.17,16.56,16.56,0,0,0,5.91,9.21,32.67,32.67,0,0,0,10.2,4.78,31.63,31.63,0,0,1-10.49-4.39,17.14,17.14,0,0,1-6.36-9.39c-.27-.93-.45-1.87-.68-2.81L97,89.43l-.25-2.85-.15-2.85c-.13-3.8-.14-7.6-.16-11.39,0-7.55,0-15.18-1.69-22.52a35.72,35.72,0,0,0-4.22-10.41A64,64,0,0,0,83.8,30.32Z"/></g><path class="cls-12" d="M245.16,128.61,206.35,62.69h-.62v65.76H183.27V41.11H217l28.57,53.15h.62l28.58-53.15h32.69v87.34H285V62.69h-.63Z"/><path class="cls-12" d="M369.18,130.32q-14.73,0-25.14-4.8t-15.72-13.23A35.58,35.58,0,0,1,323,92.89a35.58,35.58,0,0,1,5.31-19.4q5.3-8.43,15.72-13.23t25.14-4.8q14.71,0,25.14,4.8T410,73.49a35.66,35.66,0,0,1,5.3,19.4,35.79,35.79,0,0,1-5.3,19.34q-5.31,8.49-15.72,13.29T369.18,130.32Zm0-16.22a26.6,26.6,0,0,0,12.16-2.56,17.53,17.53,0,0,0,7.68-7.36,23.3,23.3,0,0,0,2.62-11.29A23.28,23.28,0,0,0,389,81.6a17.55,17.55,0,0,0-7.68-7.37,26.73,26.73,0,0,0-12.16-2.55,26.44,26.44,0,0,0-12,2.55,17.91,17.91,0,0,0-7.74,7.37,22.74,22.74,0,0,0-2.68,11.29,22.77,22.77,0,0,0,2.68,11.29,17.88,17.88,0,0,0,7.74,7.36A26.31,26.31,0,0,0,369.18,114.1Z"/><path class="cls-12" d="M472.74,130.32q-14.73,0-25.14-4.8t-15.73-13.23a35.66,35.66,0,0,1-5.3-19.4,35.66,35.66,0,0,1,5.3-19.4q5.31-8.43,15.73-13.23t25.14-4.8q14.72,0,25.14,4.8T513.6,73.49a35.66,35.66,0,0,1,5.3,19.4,35.79,35.79,0,0,1-5.3,19.34q-5.31,8.49-15.72,13.29T472.74,130.32Zm0-16.22a26.6,26.6,0,0,0,12.16-2.56,17.45,17.45,0,0,0,7.67-7.36,23.19,23.19,0,0,0,2.62-11.29,23.16,23.16,0,0,0-2.62-11.29,17.47,17.47,0,0,0-7.67-7.37,26.73,26.73,0,0,0-12.16-2.55,26.44,26.44,0,0,0-12,2.55A17.91,17.91,0,0,0,453,81.6a22.74,22.74,0,0,0-2.68,11.29A22.77,22.77,0,0,0,453,104.18a17.88,17.88,0,0,0,7.74,7.36A26.31,26.31,0,0,0,472.74,114.1Z"/><path class="cls-12" d="M551.59,128.45,521.4,57.33h22.46l21.21,50.9h.62l21.21-50.9h22.46l-30.19,71.12Z"/><path class="cls-12" d="M627.45,53.59q-6.62,0-10.35-3.19a10.35,10.35,0,0,1-3.75-8.29,10.52,10.52,0,0,1,3.75-8.43q3.74-3.18,10.35-3.18t10.23,3.18a10.52,10.52,0,0,1,3.75,8.43,10.35,10.35,0,0,1-3.75,8.29Q633.95,53.58,627.45,53.59Zm-258.23,57a9.93,9.93,0,0,1-6.64-2,6.65,6.65,0,0,1-2.4-5.32,6.74,6.74,0,0,1,2.4-5.4,9.93,9.93,0,0,1,6.64-2,9.81,9.81,0,0,1,6.56,2,6.74,6.74,0,0,1,2.4,5.4,6.65,6.65,0,0,1-2.4,5.32A9.81,9.81,0,0,1,369.22,110.55Zm103.56,0a9.93,9.93,0,0,1-6.64-2,6.65,6.65,0,0,1-2.4-5.32,6.74,6.74,0,0,1,2.4-5.4,9.93,9.93,0,0,1,6.64-2,9.78,9.78,0,0,1,6.55,2,6.74,6.74,0,0,1,2.4,5.4,6.65,6.65,0,0,1-2.4,5.32A9.78,9.78,0,0,1,472.78,110.55Zm143.44,17.9V57.33h1a21.07,21.07,0,0,0,4.55,1.43,29.09,29.09,0,0,0,11.36,0,20.72,20.72,0,0,0,4.55-1.43h1v71.12Z"/><path class="cls-12" d="M645.54,128.45l30.32-35.94L646.29,57.33h25.58L688,77.79h1l16.1-20.46h25.58L700.82,92.26l30.56,36.19H705.81L689,107.61h-1l-16.84,20.84Z"/></g></g></g></svg>